<svg width="1440" height="1024" viewBox="0 0 1440 1024" fill="none" xmlns="http://www.w3.org/2000/svg">
<g filter="url(#filter0_f_1_12)">
<path d="M1753 739C1753 1025.08 1605.25 1257 1423 1257C1240.75 1257 1093 1025.08 1093 739C1093 452.917 1240.75 221 1423 221C1605.25 221 1753 452.917 1753 739Z" fill="#140202"/>
<path d="M1820 849.5C1820 1022.64 1642.03 1163 1422.5 1163C1202.97 1163 1025 1022.64 1025 849.5C1025 676.359 1202.97 536 1422.5 536C1642.03 536 1820 676.359 1820 849.5Z" fill="#701C85"/>
<path d="M554 199.5C554 372.641 376.033 513 156.5 513C-63.0332 513 -241 372.641 -241 199.5C-241 26.3587 -63.0332 -114 156.5 -114C376.033 -114 554 26.3587 554 199.5Z" fill="#701C85"/>
<path d="M1399 704C1399 1084.52 986.654 1393 478 1393C-30.6543 1393 -443 1084.52 -443 704C-443 323.476 -30.6543 15 478 15C986.654 15 1399 323.476 1399 704Z" fill="#1C1212"/>
<path d="M1727 118.5C1727 461.193 1336.82 739 855.5 739C374.184 739 -16 461.193 -16 118.5C-16 -224.193 374.184 -502 855.5 -502C1336.82 -502 1727 -224.193 1727 118.5Z" fill="#211C1C"/>
<path d="M1577 808.5C1577 994.896 1407.32 1146 1198 1146C988.684 1146 819 994.896 819 808.5C819 622.104 988.684 471 1198 471C1407.32 471 1577 622.104 1577 808.5Z" fill="#30054A"/>
<path d="M1074 512.5C1074 607.217 983.338 684 871.5 684C759.662 684 669 607.217 669 512.5C669 417.783 759.662 341 871.5 341C983.338 341 1074 417.783 1074 512.5Z" fill="#103593"/>
<path d="M1050 267L1066.39 337.48H1119.43L1076.52 381.039L1092.91 451.52L1050 407.961L1007.09 451.52L1023.48 381.039L980.573 337.48H1033.61L1050 267Z" fill="#D128ED"/>
<path d="M1092.5 578L1104.74 614.622H1144.33L1112.3 637.256L1124.53 673.878L1092.5 651.244L1060.47 673.878L1072.7 637.256L1040.67 614.622H1080.26L1092.5 578Z" fill="#41ADEA"/>
</g>
<defs>
<filter id="filter0_f_1_12" x="-593" y="-652" width="2563" height="2195" filterUnits="userSpaceOnUse" color-interpolation-filters="sRGB">
<feFlood flood-opacity="0" result="BackgroundImageFix"/>
<feBlend mode="normal" in="SourceGraphic" in2="BackgroundImageFix" result="shape"/>
<feGaussianBlur stdDeviation="75" result="effect1_foregroundBlur_1_12"/>
</filter>
</defs>
</svg>
