<svg xmlns="http://www.w3.org/2000/svg" version="1.1" xmlns:xlink="http://www.w3.org/1999/xlink" xmlns:svgjs="http://svgjs.dev/svgjs" viewBox="0 0 800 800"><defs><linearGradient gradientTransform="rotate(270)" x1="50%" y1="0%" x2="50%" y2="100%" id="sssquiggly-grad"><stop stop-color="hsl(206, 75%, 49%)" stop-opacity="1" offset="0%"></stop><stop stop-color="hsl(331, 90%, 56%)" stop-opacity="1" offset="100%"></stop></linearGradient></defs><g stroke-width="0.5" stroke="url(#sssquiggly-grad)" fill="none" stroke-linecap="round" transform="matrix(1,0,0,1,-5,353.1250343322754)"><path d="M10,10C31.726190476190478,11.041666666666666,68.75,19.791666666666668,114.28571428571429,15C159.82142857142858,10.208333333333332,180.95238095238096,-20.083333333333336,228.57142857142858,-13C276.1904761904762,-5.916666666666666,295.2380952380953,52.541666666666664,342.8571428571429,49C390.4761904761905,45.458333333333336,409.5238095238095,-25.416666666666668,457.14285714285717,-30C504.7619047619048,-34.583333333333336,523.8095238095239,25.333333333333332,571.4285714285714,27C619.047619047619,28.666666666666668,638.0952380952382,-29.708333333333336,685.7142857142858,-22C733.3333333333334,-14.291666666666666,776.1904761904761,46.08333333333333,800,64"></path><path d="M10,10C31.726190476190478,11.041666666666666,68.75,19.791666666666668,114.28571428571429,15C159.82142857142858,10.208333333333332,180.95238095238096,-20.083333333333336,228.57142857142858,-13C276.1904761904762,-5.916666666666666,295.2380952380953,52.541666666666664,342.8571428571429,49C390.4761904761905,45.458333333333336,409.5238095238095,-25.416666666666668,457.14285714285717,-30C504.7619047619048,-34.583333333333336,523.8095238095239,25.333333333333332,571.4285714285714,27C619.047619047619,28.666666666666668,638.0952380952382,-29.708333333333336,685.7142857142858,-22C733.3333333333334,-14.291666666666666,776.1904761904761,46.08333333333333,800,64" transform="matrix(1,0,0,1,0,60)"></path><path d="M10,10C31.726190476190478,11.041666666666666,68.75,19.791666666666668,114.28571428571429,15C159.82142857142858,10.208333333333332,180.95238095238096,-20.083333333333336,228.57142857142858,-13C276.1904761904762,-5.916666666666666,295.2380952380953,52.541666666666664,342.8571428571429,49C390.4761904761905,45.458333333333336,409.5238095238095,-25.416666666666668,457.14285714285717,-30C504.7619047619048,-34.583333333333336,523.8095238095239,25.333333333333332,571.4285714285714,27C619.047619047619,28.666666666666668,638.0952380952382,-29.708333333333336,685.7142857142858,-22C733.3333333333334,-14.291666666666666,776.1904761904761,46.08333333333333,800,64" transform="matrix(1,0,0,1,0,50)"></path><path d="M10,10C31.726190476190478,11.041666666666666,68.75,19.791666666666668,114.28571428571429,15C159.82142857142858,10.208333333333332,180.95238095238096,-20.083333333333336,228.57142857142858,-13C276.1904761904762,-5.916666666666666,295.2380952380953,52.541666666666664,342.8571428571429,49C390.4761904761905,45.458333333333336,409.5238095238095,-25.416666666666668,457.14285714285717,-30C504.7619047619048,-34.583333333333336,523.8095238095239,25.333333333333332,571.4285714285714,27C619.047619047619,28.666666666666668,638.0952380952382,-29.708333333333336,685.7142857142858,-22C733.3333333333334,-14.291666666666666,776.1904761904761,46.08333333333333,800,64" transform="matrix(1,0,0,1,0,40)"></path><path d="M10,10C31.726190476190478,11.041666666666666,68.75,19.791666666666668,114.28571428571429,15C159.82142857142858,10.208333333333332,180.95238095238096,-20.083333333333336,228.57142857142858,-13C276.1904761904762,-5.916666666666666,295.2380952380953,52.541666666666664,342.8571428571429,49C390.4761904761905,45.458333333333336,409.5238095238095,-25.416666666666668,457.14285714285717,-30C504.7619047619048,-34.583333333333336,523.8095238095239,25.333333333333332,571.4285714285714,27C619.047619047619,28.666666666666668,638.0952380952382,-29.708333333333336,685.7142857142858,-22C733.3333333333334,-14.291666666666666,776.1904761904761,46.08333333333333,800,64" transform="matrix(1,0,0,1,0,30)"></path><path d="M10,10C31.726190476190478,11.041666666666666,68.75,19.791666666666668,114.28571428571429,15C159.82142857142858,10.208333333333332,180.95238095238096,-20.083333333333336,228.57142857142858,-13C276.1904761904762,-5.916666666666666,295.2380952380953,52.541666666666664,342.8571428571429,49C390.4761904761905,45.458333333333336,409.5238095238095,-25.416666666666668,457.14285714285717,-30C504.7619047619048,-34.583333333333336,523.8095238095239,25.333333333333332,571.4285714285714,27C619.047619047619,28.666666666666668,638.0952380952382,-29.708333333333336,685.7142857142858,-22C733.3333333333334,-14.291666666666666,776.1904761904761,46.08333333333333,800,64" transform="matrix(1,0,0,1,0,20)"></path><path d="M10,10C31.726190476190478,11.041666666666666,68.75,19.791666666666668,114.28571428571429,15C159.82142857142858,10.208333333333332,180.95238095238096,-20.083333333333336,228.57142857142858,-13C276.1904761904762,-5.916666666666666,295.2380952380953,52.541666666666664,342.8571428571429,49C390.4761904761905,45.458333333333336,409.5238095238095,-25.416666666666668,457.14285714285717,-30C504.7619047619048,-34.583333333333336,523.8095238095239,25.333333333333332,571.4285714285714,27C619.047619047619,28.666666666666668,638.0952380952382,-29.708333333333336,685.7142857142858,-22C733.3333333333334,-14.291666666666666,776.1904761904761,46.08333333333333,800,64" transform="matrix(1,0,0,1,0,10)"></path></g></svg>