<svg id="visual" viewBox="0 0 900 600" width="900" height="600" xmlns="http://www.w3.org/2000/svg" xmlns:xlink="http://www.w3.org/1999/xlink" version="1.1"><rect x="0" y="0" width="900" height="600" fill="#18181b"></rect><path d="M0 193L21.5 201.5C43 210 86 227 128.8 231.7C171.7 236.3 214.3 228.7 257.2 226.3C300 224 343 227 385.8 224.2C428.7 221.3 471.3 212.7 514.2 202.3C557 192 600 180 642.8 184.3C685.7 188.7 728.3 209.3 771.2 218.2C814 227 857 224 878.5 222.5L900 221L900 0L878.5 0C857 0 814 0 771.2 0C728.3 0 685.7 0 642.8 0C600 0 557 0 514.2 0C471.3 0 428.7 0 385.8 0C343 0 300 0 257.2 0C214.3 0 171.7 0 128.8 0C86 0 43 0 21.5 0L0 0Z" fill="#fa7268"></path><path d="M0 160L21.5 162.5C43 165 86 170 128.8 169.7C171.7 169.3 214.3 163.7 257.2 155.7C300 147.7 343 137.3 385.8 133.7C428.7 130 471.3 133 514.2 142.5C557 152 600 168 642.8 175.7C685.7 183.3 728.3 182.7 771.2 181.7C814 180.7 857 179.3 878.5 178.7L900 178L900 0L878.5 0C857 0 814 0 771.2 0C728.3 0 685.7 0 642.8 0C600 0 557 0 514.2 0C471.3 0 428.7 0 385.8 0C343 0 300 0 257.2 0C214.3 0 171.7 0 128.8 0C86 0 43 0 21.5 0L0 0Z" fill="#ef5f67"></path><path d="M0 95L21.5 95.8C43 96.7 86 98.3 128.8 107.3C171.7 116.3 214.3 132.7 257.2 131.8C300 131 343 113 385.8 112.5C428.7 112 471.3 129 514.2 129.2C557 129.3 600 112.7 642.8 105.7C685.7 98.7 728.3 101.3 771.2 102.7C814 104 857 104 878.5 104L900 104L900 0L878.5 0C857 0 814 0 771.2 0C728.3 0 685.7 0 642.8 0C600 0 557 0 514.2 0C471.3 0 428.7 0 385.8 0C343 0 300 0 257.2 0C214.3 0 171.7 0 128.8 0C86 0 43 0 21.5 0L0 0Z" fill="#e34c67"></path><path d="M0 61L21.5 70.2C43 79.3 86 97.7 128.8 102.5C171.7 107.3 214.3 98.7 257.2 91.3C300 84 343 78 385.8 77.7C428.7 77.3 471.3 82.7 514.2 80.7C557 78.7 600 69.3 642.8 64.2C685.7 59 728.3 58 771.2 59C814 60 857 63 878.5 64.5L900 66L900 0L878.5 0C857 0 814 0 771.2 0C728.3 0 685.7 0 642.8 0C600 0 557 0 514.2 0C471.3 0 428.7 0 385.8 0C343 0 300 0 257.2 0C214.3 0 171.7 0 128.8 0C86 0 43 0 21.5 0L0 0Z" fill="#d53867"></path><path d="M0 27L21.5 29.5C43 32 86 37 128.8 39.7C171.7 42.3 214.3 42.7 257.2 41.5C300 40.3 343 37.7 385.8 39.8C428.7 42 471.3 49 514.2 51.3C557 53.7 600 51.3 642.8 47.7C685.7 44 728.3 39 771.2 39.2C814 39.3 857 44.7 878.5 47.3L900 50L900 0L878.5 0C857 0 814 0 771.2 0C728.3 0 685.7 0 642.8 0C600 0 557 0 514.2 0C471.3 0 428.7 0 385.8 0C343 0 300 0 257.2 0C214.3 0 171.7 0 128.8 0C86 0 43 0 21.5 0L0 0Z" fill="#c62368"></path></svg>