<svg xmlns="http://www.w3.org/2000/svg" version="1.1" xmlns:xlink="http://www.w3.org/1999/xlink" xmlns:svgjs="http://svgjs.dev/svgjs" viewBox="0 0 800 800" opacity="1"><defs><linearGradient x1="50%" y1="0%" x2="50%" y2="100%" id="ccchaos-grad"><stop stop-color="hsl(206, 75%, 49%)" stop-opacity="1" offset="0%"></stop><stop stop-color="hsl(331, 90%, 56%)" stop-opacity="1" offset="100%"></stop></linearGradient></defs><g stroke-width="2" stroke="url(#ccchaos-grad)" fill="none" stroke-linecap="round"><path d="M395.12 99.72C404.87 99.96 414.81 101.19 424.91 103.35 435.04 105.94 445.36 109.35 455.85 113.48 466.4 117.84 477.14 122.75 488.04 128.12 499 133.48 510.1 139.14 521.29 145.02 532.47 150.69 543.66 156.48 554.76 162.32 565.69 167.84 576.37 173.39 586.62 178.94 596.46 184.13 605.64 189.35 613.98 194.6 621.62 199.54 628.17 204.57 633.48 209.73 639.41 217.2 643.27 232.98 641.62 241.47 639.88 247.16 637.54 253.19 634.92 259.56 632.93 265.91 631.35 272.64 630.54 279.72 631.27 286.8 633.32 294.25 636.86 302.05 642.33 309.85 649.29 317.99 657.56 326.44 667.15 334.89 677.35 343.65 687.6 352.7 697.69 361.74 706.69 371.06 713.98 380.64 719.48 390.23 722.29 399.86 722.31 409.53 720.04 419.2 715.14 428.93 707.96 438.71 699.23 448.52 689.04 458.41 677.94 468.37 666.65 478.41 655.37 488.55 644.53 498.78 634.68 509.12 625.82 519.57 618.1 530.1 611.85 540.74 606.78 551.44 602.75 562.16 600 572.92 597.95 583.62 596.35 594.19 595.47 604.65 594.58 614.84 593.45 624.62 592.45 634.09 590.86 642.98 588.55 651.14 585.99 658.74 582.54 665.42 578.2 671.04 573.46 675.91 567.82 679.59 561.36 682.02 554.53 683.66 546.98 684.06 538.8 683.25 530.37 681.84 521.44 679.44 512.11 676.16 502.64 672.76 492.87 668.86 482.9 664.69 472.87 661.01 462.69 657.49 452.42 654.34 442.14 652.26 431.79 650.86 421.42 650.27 411.04 651.01 400.87 652.55 390.9 654.77 380.92 658.03 371.12 661.64 361.5 665.39 351.83 669.61 342.28 673.52 332.87 676.92 323.37 680.17 313.95 682.53 304.61 683.87 295.15 684.6 285.75 684.1 276.41 682.36 266.96 679.82 257.57 676.02 248.27 671.04 238.92 665.31 229.71 658.53 220.69 650.84 211.72 642.6 203.03 633.64 194.7 624.1 186.57 614.27 178.89 604.04 171.77 593.55 164.97 582.96 158.8 572.25 153.32 561.49 148.22 550.78 143.84 540.08 140.19 529.47 136.86 518.96 134.19 508.53 132.15 498.22 130.25 488.01 128.84 477.9 127.86 467.89 126.76 457.96 125.93 448.09 125.31 438.29 124.34 428.54 123.47 418.83 122.68 409.17 121.45 399.52 120.3 389.89 119.26 380.31 117.89 370.73 116.8 361.41 116.06 352.37 115.26 343.32 114.99 334.56 115.32 326.09 115.87 317.63 117.16 309.48 119.22 301.67 121.67 293.87 124.93 286.41 128.97 279.32 133.4 272.23 138.57 265.5 144.38 259.14 150.45 252.77 157.05 246.74 164.07 241.06 171.15 235.31 178.51 229.87 186.08 224.71 193.51 219.41 201.05 214.33 208.65 209.45 215.98 204.34 223.34 199.35 230.7 194.46 237.77 189.25 244.88 184.08 252.03 178.94 258.92 173.45 265.92 167.95 273.04 162.48 279.97 156.68 287.1 150.93 294.45 145.29 301.66 139.44 309.15 133.79 316.93 128.44 324.63 123.07 332.65 118.15 341 113.77 349.31 109.61 357.97 106.16 366.98 103.52 375.98 101.31 385.35 100.02 395.11 99.72" stroke-dasharray="7 7" transform="rotate(0, 400, 400)" opacity="0.96"></path><path d="M401.42 110.31C410.95 110.53 420.65 111.71 430.51 113.77 440.39 116.26 450.44 119.53 460.64 123.5 470.88 127.71 481.27 132.47 491.76 137.68 502.26 142.92 512.83 148.48 523.39 154.26 533.89 159.89 544.29 165.65 554.48 171.49 564.45 177.04 574.04 182.64 583.11 188.25 591.74 193.53 599.64 198.84 606.65 204.18 613 209.21 618.29 214.32 622.4 219.52 626.82 227.04 628.81 242.72 626.96 251.03 625.39 256.56 623.44 262.4 621.41 268.54 620.12 274.64 619.33 281.08 619.36 287.85 620.87 294.61 623.61 301.71 627.71 309.14 633.52 316.56 640.63 324.32 648.84 332.4 658.17 340.47 667.95 348.86 677.68 357.55 687.2 366.23 695.67 375.21 702.54 384.48 707.78 393.75 710.56 403.11 710.77 412.52 708.91 421.95 704.59 431.46 698.12 441.04 690.18 450.66 680.77 460.36 670.38 470.15 659.68 480 648.81 489.96 638.18 499.99 628.29 510.09 619.17 520.29 610.99 530.53 604.09 540.82 598.22 551.14 593.34 561.42 589.66 571.67 586.71 581.81 584.3 591.74 582.67 601.52 581.19 610.96 579.65 619.95 578.4 628.59 576.75 636.62 574.58 643.89 572.31 650.62 569.33 656.45 565.6 661.26 561.58 665.38 556.76 668.4 551.18 670.26 545.3 671.42 538.71 671.47 531.48 670.44 524.02 668.93 516.01 666.54 507.56 663.39 498.96 660.19 489.99 656.57 480.73 652.73 471.41 649.38 461.85 646.19 452.12 643.34 442.38 641.47 432.49 640.22 422.49 639.68 412.48 640.37 402.6 641.75 392.87 643.74 383.11 646.71 373.48 649.99 363.97 653.41 354.41 657.3 344.95 660.94 335.58 664.15 326.14 667.28 316.76 669.63 307.44 671.09 298.05 672.05 288.71 671.92 279.43 670.66 270.1 668.7 260.85 665.58 251.72 661.35 242.6 656.44 233.65 650.51 224.93 643.69 216.32 636.33 208.03 628.22 200.13 619.51 192.46 610.47 185.28 600.98 178.66 591.16 172.38 581.2 166.72 571.04 161.74 560.77 157.12 550.49 153.18 540.17 149.94 529.88 146.98 519.65 144.63 509.47 142.87 499.38 141.2 489.37 139.97 479.44 139.13 469.61 138.14 459.84 137.39 450.15 136.81 440.55 135.87 430.99 135.01 421.5 134.21 412.08 132.97 402.68 131.78 393.33 130.7 384.07 129.28 374.8 128.11 365.82 127.27 357.14 126.36 348.46 125.96 340.07 126.12 331.99 126.48 323.91 127.55 316.14 129.36 308.71 131.54 301.28 134.5 294.17 138.24 287.42 142.37 280.64 147.22 274.21 152.72 268.11 158.52 261.97 164.85 256.15 171.64 250.63 178.54 245.02 185.76 239.66 193.22 234.56 200.61 229.29 208.14 224.21 215.76 219.28 223.17 214.12 230.62 209.06 238.09 204.08 245.31 198.79 252.55 193.53 259.82 188.3 266.85 182.74 273.95 177.19 281.15 171.68 288.15 165.88 295.31 160.16 302.64 154.56 309.84 148.79 317.26 143.25 324.94 138.02 332.52 132.8 340.39 128.03 348.57 123.79 356.7 119.79 365.16 116.48 373.96 113.94 382.74 111.83 391.89 110.59 401.41 110.31" stroke-dasharray="5 0" transform="rotate(4.04, 400, 400)" opacity="0.18"></path><path d="M407.62 120.9C416.89 121.11 426.32 122.23 435.88 124.2 445.46 126.57 455.17 129.7 464.98 133.51 474.8 137.56 484.72 142.15 494.67 147.2 504.59 152.3 514.5 157.73 524.31 163.4 534 168.95 543.5 174.66 552.69 180.47 561.62 186.04 570.09 191.66 577.96 197.31 585.39 202.66 592.06 208.05 597.84 213.46 603.03 218.59 607.21 223.78 610.31 229.04 613.51 236.64 614.27 252.3 612.49 260.51 611.22 265.94 609.76 271.64 608.38 277.61 607.81 283.52 607.81 289.73 608.63 296.24 610.85 302.73 614.2 309.53 618.77 316.66 624.85 323.76 632.04 331.19 640.14 338.93 649.17 346.67 658.51 354.71 667.72 363.07 676.68 371.42 684.64 380.08 691.1 389.04 696.09 398 698.82 407.07 699.21 416.22 697.71 425.38 693.94 434.64 688.15 443.99 680.97 453.36 672.34 462.83 662.68 472.38 652.61 481.98 642.23 491.66 631.9 501.41 622.1 511.2 612.86 521.05 604.38 530.9 596.96 540.77 590.44 550.61 584.8 560.35 580.27 570.03 576.47 579.53 573.24 588.76 570.82 597.81 568.66 606.47 566.59 614.63 564.92 622.44 563.03 629.61 560.79 636.03 557.22 644.44 546.87 655.66 539.88 658.23 534.76 659 528.98 658.77 522.58 657.57 515.98 656 508.82 653.66 501.17 650.67 493.4 647.68 485.2 644.35 476.65 640.84 468.03 637.81 459.12 634.93 449.95 632.36 440.77 630.7 431.36 629.59 421.78 629.1 412.19 629.72 402.65 630.96 393.18 632.74 383.71 635.42 374.29 638.39 364.95 641.49 355.58 645.06 346.26 648.42 337 651.42 327.7 654.4 318.44 656.72 309.24 658.24 300 659.38 290.81 659.54 281.71 658.69 272.59 657.24 263.59 654.73 254.73 651.19 245.93 647.03 237.34 641.91 229.02 635.92 220.85 629.41 213.02 622.16 205.62 614.29 198.48 606.06 191.83 597.34 185.76 588.25 180.01 578.98 174.87 569.44 170.4 559.74 166.25 549.99 162.76 540.14 159.9 530.27 157.29 520.41 155.25 510.57 153.73 500.79 152.27 491.05 151.21 481.38 150.48 471.8 149.59 462.26 148.88 452.8 148.33 443.44 147.42 434.12 146.55 424.87 145.73 415.71 144.48 406.58 143.27 397.52 142.14 388.56 140.67 379.61 139.45 370.95 138.52 362.61 137.52 354.25 136.98 346.2 136.99 338.47 137.17 330.73 138.02 323.3 139.58 316.2 141.49 309.07 144.16 302.27 147.56 295.79 151.37 289.28 155.88 283.07 161.05 277.18 166.52 271.22 172.56 265.54 179.07 260.13 185.73 254.6 192.75 249.3 200.04 244.21 207.33 238.94 214.79 233.83 222.37 228.85 229.81 223.63 237.31 218.49 244.85 213.41 252.17 208.05 259.53 202.71 266.91 197.4 274.08 191.8 281.3 186.22 288.59 180.7 295.69 174.92 302.92 169.25 310.28 163.72 317.51 158.06 324.92 152.64 332.54 147.55 340.07 142.49 347.85 137.88 355.9 133.8 363.9 129.96 372.2 126.79 380.81 124.36 389.4 122.34 398.33 121.17 407.61 120.9" stroke-dasharray="11 2" transform="rotate(8.08, 400, 400)" opacity="0.26"></path><path d="M413.21 131.48C422.22 131.68 431.33 132.74 440.53 134.62 449.74 136.87 459.03 139.86 468.36 143.5 477.69 147.38 487.03 151.8 496.33 156.67 505.58 161.61 514.73 166.89 523.69 172.44 532.51 177.89 541.05 183.52 549.2 189.27 557.07 194.82 564.42 200.45 571.14 206.12 577.44 211.52 582.99 216.97 587.67 222.44 593.47 230.28 599.69 245.93 600.26 253.86 599.8 261.66 597.02 277.99 595.88 286.63 596.03 292.39 596.79 298.43 598.35 304.74 601.2 311.01 605.08 317.57 610.03 324.43 616.3 331.26 623.5 338.41 631.44 345.85 640.14 353.28 649.03 361.02 657.72 369.06 666.14 377.1 673.6 385.45 679.67 394.1 684.4 402.76 687.08 411.53 687.61 420.39 686.45 429.26 683.19 438.24 678.05 447.31 671.59 456.39 663.73 465.57 654.82 474.82 645.41 484.09 635.58 493.44 625.64 502.82 616.05 512.22 606.83 521.63 598.17 531.02 590.39 540.38 583.36 549.66 577.09 558.8 571.82 567.83 567.23 576.64 563.22 585.14 560 593.42 557.13 601.28 554.46 608.62 552.25 615.6 549.97 621.94 547.49 627.54 543.81 634.8 534.13 644.1 527.83 645.97 523.29 646.41 518.14 645.96 512.42 644.66 506.54 643.07 500.12 640.81 493.2 638 486.17 635.24 478.69 632.2 470.81 629.01 462.87 626.29 454.59 623.71 445.99 621.41 437.38 619.94 428.49 618.95 419.35 618.51 410.21 619.08 401.06 620.19 391.91 621.77 382.77 624.18 373.64 626.84 364.53 629.63 355.42 632.88 346.32 635.96 337.26 638.74 328.19 641.55 319.14 643.79 310.15 645.35 301.16 646.6 292.23 646.99 283.4 646.48 274.61 645.47 265.94 643.5 257.46 640.58 249.08 637.11 240.93 632.73 233.09 627.53 225.43 621.84 218.14 615.42 211.29 608.37 204.71 600.97 198.64 593.05 193.12 584.71 187.92 576.17 183.32 567.32 179.34 558.26 175.66 549.09 172.58 539.79 170.1 530.42 167.82 521.03 166.04 511.61 164.75 502.21 163.47 492.83 162.54 483.49 161.91 474.22 161.08 464.98 160.41 455.81 159.87 446.73 158.96 437.68 158.09 428.71 157.25 419.85 155.98 411 154.74 402.23 153.57 393.59 152.08 384.94 150.8 376.59 149.8 368.56 148.71 360.52 148.07 352.79 147.93 345.36 147.94 337.92 148.59 330.78 149.9 323.96 151.53 317.1 153.9 310.54 156.98 304.29 160.44 297.99 164.59 291.96 169.39 286.22 174.52 280.39 180.21 274.81 186.39 269.46 192.76 263.99 199.52 258.71 206.59 253.6 213.71 248.31 221.03 243.15 228.51 238.1 235.91 232.82 243.4 227.6 250.95 222.44 258.34 217.01 265.77 211.62 273.23 206.26 280.5 200.63 287.83 195.05 295.21 189.54 302.42 183.81 309.72 178.21 317.13 172.77 324.4 167.24 331.83 161.97 339.43 157.02 346.94 152.14 354.66 147.7 362.6 143.79 370.5 140.12 378.65 137.09 387.08 134.78 395.48 132.86 404.19 131.74 413.2 131.48" stroke-dasharray="9 2" transform="rotate(12.12, 400, 400)" opacity="0.94"></path><path d="M417.75 142.07C426.46 142.26 435.22 143.26 444.01 145.03 452.79 147.17 461.6 150.01 470.38 153.48 479.14 157.18 487.84 161.42 496.42 166.1 504.94 170.87 513.27 175.98 521.34 181.37 529.25 186.7 536.82 192.23 543.94 197.9 550.79 203.41 557.08 209 562.74 214.66 568.02 220.09 572.57 225.57 576.33 231.08 580.93 239.02 585.58 254.86 585.89 262.84 585.58 270.68 584.09 286.93 583.95 295.46 584.81 301.12 586.27 307.02 588.49 313.17 591.9 319.26 596.23 325.63 601.47 332.27 607.86 338.87 615.01 345.76 622.73 352.94 631.08 360.1 639.51 367.55 647.68 375.31 655.57 383.05 662.54 391.09 668.23 399.44 672.72 407.79 675.33 416.25 675.99 424.8 675.13 433.36 672.34 442.02 667.82 450.76 662.06 459.51 654.94 468.34 646.77 477.22 638.06 486.12 628.82 495.06 619.36 504 610.07 512.93 601 521.85 592.31 530.69 584.31 539.48 576.91 548.15 570.16 556.63 564.26 564.98 558.99 573.06 554.27 580.8 550.3 588.3 546.72 595.36 543.4 601.89 539.2 610.84 530.95 624.64 526.32 629.22 521.37 632.23 508.98 633.39 501.43 631.73 496.13 630.16 490.31 628.02 484.01 625.4 477.62 622.88 470.77 620.12 463.52 617.24 456.2 614.82 448.51 612.53 440.48 610.47 432.42 609.19 424.05 608.32 415.39 607.92 406.73 608.44 398 609.42 389.23 610.82 380.48 612.97 371.69 615.35 362.89 617.84 354.11 620.78 345.31 623.58 336.54 626.12 327.79 628.75 319.05 630.88 310.38 632.42 301.73 633.75 293.16 634.31 284.72 634.08 276.34 633.44 268.11 631.92 260.1 629.55 252.21 626.7 244.59 623.01 237.3 618.53 230.21 613.62 223.5 607.99 217.24 601.74 211.25 595.15 205.76 588.03 200.82 580.47 196.17 572.68 192.08 564.55 188.59 556.16 185.35 547.65 182.66 538.96 180.53 530.15 178.54 521.29 177.01 512.36 175.91 503.42 174.78 494.47 173.96 485.53 173.39 476.64 172.61 467.76 171.97 458.93 171.42 450.18 170.51 441.45 169.62 432.8 168.75 424.24 167.47 415.7 166.21 407.25 165.01 398.91 163.49 390.57 162.17 382.53 161.12 374.79 159.96 367.05 159.22 359.6 158.94 352.44 158.79 345.27 159.24 338.39 160.32 331.8 161.69 325.17 163.75 318.81 166.49 312.74 169.6 306.6 173.38 300.72 177.8 295.07 182.54 289.35 187.85 283.83 193.66 278.51 199.7 273.06 206.14 267.78 212.92 262.64 219.79 257.32 226.92 252.11 234.22 246.99 241.5 241.65 248.91 236.37 256.41 231.14 263.79 225.67 271.23 220.23 278.72 214.84 286.06 209.23 293.44 203.66 300.87 198.19 308.16 192.55 315.52 187.04 322.96 181.72 330.29 176.34 337.73 171.23 345.31 166.45 352.8 161.76 360.47 157.5 368.31 153.77 376.11 150.27 384.13 147.39 392.36 145.2 400.58 143.37 409.04 142.31 417.74 142.07" stroke-dasharray="4 4" transform="rotate(16.16, 400, 400)" opacity="0.35"></path><path d="M420.9 152.66C429.27 152.83 437.63 153.78 445.95 155.45 454.27 157.47 462.54 160.16 470.72 163.45 478.86 166.97 486.88 171.01 494.71 175.49 502.46 180.07 509.96 185 517.14 190.21 524.16 195.4 530.79 200.8 536.93 206.36 542.83 211.79 548.18 217.33 552.89 222.94 557.3 228.37 561.02 233.85 564.03 239.38 567.72 247.39 571.39 263.37 571.7 271.41 571.74 279.29 571.75 295.52 572.61 303.96 574.13 309.55 576.24 315.35 579.06 321.37 582.94 327.33 587.61 333.53 593.07 339.98 599.5 346.38 606.54 353.05 614.02 359.99 621.98 366.9 629.94 374.1 637.61 381.56 644.98 389.02 651.48 396.77 656.79 404.8 661.03 412.83 663.57 420.97 664.34 429.18 663.75 437.41 661.41 445.71 657.45 454.08 652.35 462.46 645.96 470.89 638.53 479.35 630.53 487.81 621.93 496.29 613 504.73 604.12 513.15 595.29 521.5 586.71 529.75 578.64 537.92 571.02 545.94 563.92 553.72 557.54 561.36 551.7 568.7 546.37 575.66 541.73 582.4 537.47 588.68 533.52 594.42 528.42 602.24 518.92 614 514.01 617.73 508.98 620.09 497.1 620.52 490.07 618.79 485.18 617.28 479.82 615.28 474.02 612.87 468.16 610.59 461.86 608.11 455.15 605.54 448.4 603.4 441.26 601.38 433.76 599.56 426.24 598.45 418.38 597.69 410.22 597.33 402.05 597.8 393.77 598.67 385.44 599.89 377.11 601.8 368.73 603.91 360.32 606.11 351.93 608.75 343.52 611.27 335.13 613.57 326.78 616 318.45 618 310.18 619.49 301.98 620.84 293.86 621.52 285.89 621.5 278.01 621.16 270.31 620.03 262.84 618.13 255.52 615.83 248.49 612.75 241.79 608.95 235.31 604.74 229.22 599.87 223.58 594.38 218.19 588.57 213.29 582.23 208.91 575.44 204.79 568.42 201.21 561.03 198.17 553.35 195.34 545.53 193.02 537.48 191.19 529.28 189.46 521.01 188.14 512.64 187.2 504.2 186.2 495.75 185.45 487.27 184.93 478.8 184.18 470.34 183.54 461.91 182.97 453.53 182.05 445.16 181.14 436.86 180.25 428.64 178.95 420.43 177.67 412.3 176.45 404.28 174.91 396.25 173.57 388.51 172.46 381.06 171.25 373.6 170.42 366.41 170.02 359.51 169.73 352.58 170 345.92 170.85 339.53 171.96 333.1 173.73 326.91 176.14 320.97 178.89 314.97 182.29 309.19 186.3 303.63 190.64 297.97 195.54 292.49 200.94 287.18 206.59 281.75 212.67 276.44 219.1 271.27 225.67 265.92 232.51 260.66 239.58 255.48 246.66 250.1 253.91 244.77 261.26 239.49 268.56 234 275.95 228.56 283.38 223.17 290.72 217.59 298.11 212.08 305.54 206.68 312.86 201.14 320.23 195.76 327.67 190.58 335.02 185.37 342.45 180.44 349.98 175.85 357.45 171.35 365.04 167.29 372.76 163.73 380.45 160.41 388.3 157.68 396.32 155.61 404.33 153.89 412.52 152.89 420.89 152.66" stroke-dasharray="6 6" transform="rotate(20.200000000000003, 400, 400)" opacity="0.44"></path><path d="M422.39 163.25C430.39 163.4 438.32 164.29 446.14 165.87 453.96 167.77 461.66 170.3 469.21 173.4 476.72 176.74 484.04 180.57 491.11 184.84 498.1 189.22 504.79 193.95 511.12 198.97 517.31 203.99 523.06 209.23 528.34 214.65 533.4 219.97 537.92 225.42 541.85 230.96 545.54 236.35 548.62 241.81 551.07 247.33 554.13 255.35 557.35 271.42 557.89 279.49 558.43 287.42 560.06 303.64 561.89 312.01 564.01 317.55 566.7 323.27 570.02 329.18 574.28 335.03 579.22 341.08 584.8 347.36 591.21 353.59 598.08 360.07 605.27 366.78 612.84 373.47 620.33 380.41 627.49 387.6 634.35 394.78 640.4 402.23 645.36 409.94 649.35 417.65 651.81 425.44 652.67 433.3 652.32 441.16 650.38 449.08 646.95 457.04 642.48 465.01 636.79 473 630.09 480.99 622.79 488.97 614.86 496.93 606.52 504.82 598.12 512.68 589.64 520.44 581.28 528.05 573.27 535.58 565.58 542.91 558.28 549.98 551.57 556.9 545.3 563.5 539.48 569.71 534.26 575.7 529.41 581.23 524.88 586.23 518.9 593 508 602.92 502.65 605.92 497.37 607.73 485.56 607.61 478.82 605.88 471.68 603.53 455.36 597.29 446.19 593.9 439.92 592.04 433.27 590.27 426.27 588.68 419.26 587.72 411.9 587.06 404.23 586.75 396.56 587.17 388.77 587.93 380.9 588.99 373.04 590.67 365.12 592.52 357.16 594.45 349.23 596.79 341.28 599.04 333.35 601.11 325.47 603.32 317.63 605.17 309.86 606.58 302.17 607.91 294.59 608.66 287.17 608.8 279.86 608.68 272.75 607.88 265.88 606.38 259.18 604.55 252.77 602.02 246.71 598.81 240.86 595.25 235.4 591.06 230.37 586.29 225.58 581.22 221.26 575.63 217.42 569.59 213.82 563.33 210.7 556.68 208.08 549.71 205.63 542.6 203.63 535.23 202.07 527.67 200.57 520.03 199.43 512.25 198.61 504.37 197.7 496.46 197.01 488.49 196.51 480.5 195.77 472.5 195.12 464.5 194.53 456.54 193.59 448.57 192.65 440.65 191.73 432.79 190.42 424.94 189.13 417.15 187.88 409.45 186.34 401.75 184.98 394.31 183.84 387.13 182.58 379.94 181.68 373.01 181.18 366.34 180.76 359.64 180.86 353.18 181.49 346.96 182.36 340.7 183.84 334.66 185.92 328.83 188.32 322.95 191.33 317.25 194.93 311.74 198.85 306.13 203.32 300.68 208.29 295.38 213.51 289.95 219.17 284.63 225.2 279.42 231.4 274.05 237.9 268.76 244.65 263.53 251.46 258.13 258.46 252.78 265.6 247.49 272.73 242.01 279.96 236.59 287.27 231.23 294.52 225.72 301.84 220.3 309.19 215 316.47 209.6 323.81 204.37 331.19 199.35 338.5 194.33 345.87 189.59 353.32 185.2 360.71 180.92 368.19 177.06 375.76 173.69 383.31 170.55 390.96 167.97 398.73 166.03 406.49 164.4 414.38 163.46 422.38 163.25" stroke-dasharray="9 2" transform="rotate(24.24, 400, 400)" opacity="0.29"></path><path d="M422.11 173.83C429.71 173.98 437.17 174.81 444.48 176.28 451.78 178.06 458.9 180.44 465.82 183.36 472.69 186.5 479.33 190.12 485.67 194.17 491.94 198.33 497.88 202.85 503.43 207.65 508.86 212.48 513.85 217.54 518.38 222.79 522.73 227.98 526.58 233.3 529.9 238.74 534.34 246.75 540.42 262.92 542.22 271.03 543.67 278.98 545.75 295.01 546.93 303.13 548.25 308.47 549.82 313.92 551.76 319.5 554.44 325 557.61 330.65 561.35 336.45 565.9 342.2 571.01 348.13 576.65 354.25 582.97 360.33 589.63 366.61 596.5 373.11 603.65 379.58 610.67 386.27 617.34 393.19 623.71 400.1 629.31 407.24 633.92 414.62 637.68 421.99 640.04 429.42 640.98 436.89 640.84 444.37 639.26 451.88 636.33 459.4 632.45 466.92 627.42 474.44 621.42 481.92 614.84 489.39 607.59 496.8 599.87 504.11 592.01 511.38 583.98 518.52 575.94 525.47 568.12 532.34 560.5 538.98 553.14 545.34 546.24 551.56 539.69 557.43 533.51 562.92 527.84 568.19 522.5 573.02 517.46 577.33 510.68 583.14 498.38 591.43 492.51 593.82 486.84 595.19 474.76 594.68 468.14 593 461.24 590.86 445.77 585.3 437.16 582.34 431.29 580.72 425.07 579.19 418.53 577.81 411.97 577 405.09 576.44 397.91 576.16 390.74 576.54 383.44 577.2 376.06 578.1 368.7 579.57 361.28 581.18 353.82 582.86 346.4 584.92 338.97 586.9 331.57 588.72 324.22 590.71 316.93 592.39 309.73 593.7 302.62 594.97 295.63 595.75 288.82 595.99 282.12 596.05 275.64 595.5 269.42 594.34 263.36 592.9 257.6 590.83 252.19 588.15 246.97 585.18 242.13 581.61 237.71 577.49 233.5 573.12 229.72 568.23 226.4 562.91 223.27 557.37 220.58 551.44 218.33 545.18 216.22 538.78 214.5 532.1 213.17 525.2 211.85 518.21 210.85 511.04 210.12 503.76 209.28 496.42 208.62 488.99 208.12 481.51 207.38 474.02 206.7 466.49 206.07 458.97 205.11 451.44 204.15 443.93 203.19 436.45 201.88 428.98 200.57 421.55 199.32 414.18 197.78 406.82 196.41 399.68 195.24 392.78 193.96 385.87 193.01 379.18 192.41 372.72 191.89 366.24 191.83 359.97 192.26 353.91 192.9 347.81 194.11 341.9 195.87 336.18 197.92 330.39 200.55 324.77 203.74 319.3 207.23 313.75 211.25 308.33 215.76 303.03 220.53 297.61 225.73 292.29 231.32 287.06 237.09 281.68 243.18 276.38 249.55 271.14 256.01 265.75 262.68 260.41 269.53 255.13 276.4 249.7 283.4 244.33 290.49 239.04 297.57 233.64 304.72 228.33 311.92 223.16 319.08 217.93 326.29 212.87 333.53 208.05 340.74 203.23 347.99 198.71 355.29 194.53 362.55 190.47 369.86 186.82 377.23 183.64 384.59 180.68 392.01 178.26 399.49 176.44 406.96 174.91 414.51 174.03 422.1 173.83" stroke-dasharray="9 6" transform="rotate(28.28, 400, 400)" opacity="0.09"></path><path d="M420.08 184.42C427.25 184.55 434.23 185.32 441.02 186.7 447.79 188.35 454.34 190.57 460.64 193.31 466.91 196.25 472.9 199.66 478.58 203.47 484.19 207.41 489.45 211.69 494.33 216.27 499.1 220.89 503.46 225.74 507.38 230.79 511.17 235.81 514.51 240.98 517.37 246.27 521.29 254.12 526.89 270.07 528.78 278.11 530.55 286.03 533.81 302 535.79 310.08 537.64 315.4 539.77 320.82 542.24 326.34 545.38 331.78 548.96 337.35 553.02 343.06 557.77 348.71 562.98 354.51 568.6 360.47 574.76 366.4 581.17 372.5 587.7 378.78 594.42 385.04 600.96 391.49 607.14 398.13 613.03 404.76 618.21 411.59 622.48 418.62 626 425.64 628.27 432.7 629.26 439.77 629.31 446.84 628.06 453.91 625.58 460.97 622.25 468.02 617.85 475.03 612.53 481.99 606.65 488.91 600.09 495.76 593.02 502.47 585.76 509.13 578.23 515.64 570.6 521.94 563.09 528.15 555.65 534.11 548.38 539.78 541.44 545.31 534.76 550.5 528.36 555.3 522.37 559.91 516.67 564.08 511.24 567.78 503.78 572.72 490.18 579.61 483.77 581.49 477.65 582.51 465.1 581.76 458.45 580.19 451.64 578.27 436.73 573.41 428.57 570.84 423.02 569.47 417.17 568.16 411.04 566.97 404.89 566.29 398.46 565.82 391.76 565.57 385.06 565.91 378.26 566.47 371.39 567.24 364.54 568.51 357.64 569.89 350.73 571.33 343.85 573.12 336.98 574.85 330.15 576.44 323.38 578.2 316.68 579.7 310.09 580.88 303.59 582.07 297.24 582.83 291.07 583.13 282.1 583.12 265.66 580.1 258.33 577.04 251.6 573.06 240.33 562.17 235.84 555.39 233.14 550.54 230.83 545.31 228.91 539.73 227.08 534.02 225.6 528.02 224.45 521.78 223.28 515.44 222.38 508.91 221.71 502.22 220.91 495.48 220.27 488.62 219.75 481.68 218.98 474.71 218.28 467.68 217.61 460.62 216.62 453.56 215.63 446.48 214.64 439.41 213.32 432.34 212.02 425.28 210.76 418.26 209.23 411.24 207.86 404.41 206.68 397.79 205.38 391.16 204.38 384.72 203.72 378.47 203.09 372.21 202.9 366.12 203.16 360.21 203.58 354.27 204.53 348.49 206 342.86 207.71 337.18 209.97 331.63 212.75 326.22 215.81 320.72 219.37 315.34 223.41 310.05 227.7 304.67 232.42 299.36 237.53 294.14 242.83 288.79 248.47 283.51 254.38 278.29 260.43 272.94 266.71 267.64 273.17 262.42 279.7 257.07 286.38 251.79 293.17 246.62 299.97 241.34 306.87 236.19 313.83 231.19 320.77 226.14 327.78 221.29 334.81 216.67 341.83 212.09 348.88 207.79 355.95 203.83 363.01 200 370.11 196.56 377.22 193.58 384.32 190.81 391.45 188.55 398.6 186.85 405.75 185.43 412.91 184.6 420.07 184.42" stroke-dasharray="3 9" transform="rotate(32.32, 400, 400)" opacity="0.18"></path><path d="M416.47 195.01C423.18 195.13 429.68 195.84 435.94 197.12 442.19 198.65 448.2 200.71 453.93 203.26 459.63 206 465.04 209.19 470.12 212.76 475.15 216.46 479.83 220.5 484.15 224.83 488.39 229.22 492.24 233.84 495.7 238.67 500.56 245.98 508.24 261.22 511.15 269.05 513.79 276.83 518.13 292.57 520.16 300.52 522.67 308.38 529.06 324.33 533.3 332.45 536.81 337.83 540.7 343.31 544.99 348.9 549.85 354.44 555.08 360.11 560.61 365.91 566.57 371.67 572.69 377.59 578.85 383.64 585.13 389.68 591.2 395.88 596.9 402.23 602.33 408.58 607.1 415.09 611.05 421.75 614.33 428.42 616.5 435.08 617.53 441.73 617.73 448.38 616.77 455 614.71 461.57 611.89 468.14 608.09 474.64 603.42 481.04 598.21 487.42 592.33 493.69 585.94 499.8 579.29 505.86 572.34 511.74 565.19 517.39 558.08 522.96 550.95 528.27 543.88 533.28 537.05 538.17 530.37 542.71 523.89 546.88 517.74 550.88 511.81 554.47 506.1 557.61 498.13 561.8 483.46 567.49 476.55 568.97 469.98 569.73 456.84 568.89 450.09 567.46 443.27 565.78 428.71 561.6 420.89 559.41 412.83 557.71 395.51 555.39 386.26 554.98 380.02 555.28 373.7 555.76 367.35 556.4 361.01 557.49 354.64 558.66 348.29 559.87 341.97 561.41 335.67 562.88 329.44 564.24 323.27 565.78 317.19 567.09 311.24 568.14 302.51 569.57 286.14 570.37 278.64 569.56 271.61 568.03 259.34 562.21 254.19 557.95 249.6 552.94 242.43 540.57 239.8 533.35 237.55 525.62 234.43 508.7 233.37 499.66 232.59 493.53 231.93 487.24 231.38 480.84 230.58 474.42 229.84 467.9 229.12 461.33 228.1 454.75 227.09 448.12 226.08 441.47 224.75 434.82 223.45 428.15 222.2 421.49 220.69 414.83 219.33 408.32 218.15 401.98 216.85 395.64 215.82 389.45 215.09 383.43 214.24 374.44 214.77 357.14 216.31 348.8 217.71 343.23 219.61 337.77 222 332.42 224.63 327 227.74 321.67 231.31 316.43 235.11 311.1 239.33 305.85 243.94 300.66 248.73 295.37 253.87 290.14 259.29 284.98 264.86 279.71 270.68 274.5 276.7 269.37 282.8 264.14 289.08 259 295.48 253.96 301.93 248.86 308.49 243.89 315.12 239.08 321.76 234.26 328.46 229.63 335.2 225.24 341.94 220.9 348.71 216.84 355.49 213.12 362.28 209.52 369.07 206.31 375.87 203.53 382.66 200.94 389.45 198.84 396.22 197.26 403 195.94 409.75 195.18 416.46 195.01" stroke-dasharray="7 2" transform="rotate(36.36, 400, 400)" opacity="0.76"></path><path d="M411.56 205.6C417.8 205.7 423.81 206.36 429.58 207.54 435.33 208.95 440.82 210.85 446.04 213.21 456.39 218.47 465.53 225.3 473.32 233.35 480.93 241.66 487.16 250.87 492.04 260.7 496.92 270.39 500.77 280.52 503.88 290.93 507.71 301.02 511.54 311.4 515.81 322 521.8 332.31 528.89 342.95 537.23 353.9 547.45 364.68 558.58 375.91 569.94 387.57 575.78 393.38 581.39 399.31 586.63 405.36 591.61 411.41 595.98 417.59 599.61 423.88 602.66 430.17 604.73 436.44 605.77 442.65 606.11 448.86 605.41 455.02 603.73 461.1 598.37 473.23 589.69 484.96 578.57 496.06 566.38 506.94 553.09 516.98 539.52 525.88 526.47 534.34 513.86 541.42 501.93 546.9 491.05 551.77 480.74 554.93 470.88 556.32 461.76 557.28 452.64 556.72 443.32 554.82 434.3 553.17 424.73 550.8 414.54 548.04 406.82 546.65 390.47 544.74 381.84 544.4 376.03 544.66 370.18 545.06 364.33 545.59 358.49 546.5 352.66 547.48 346.86 548.48 335.35 551.34 324.1 553.79 313.39 555.48 302.95 557.4 293.24 557.94 284.54 556.94 276.27 555.5 269.14 552.26 263.34 547.32 257.94 541.76 253.81 534.59 250.95 526.05 248.11 517.08 246.2 506.97 245.07 496.04 243.31 484.9 241.86 473.13 240.61 460.98 239.56 454.88 238.52 448.72 237.49 442.5 236.17 436.28 234.88 430.02 233.63 423.72 232.15 417.43 230.81 411.26 229.64 405.22 228.35 399.17 227.31 393.25 226.54 387.46 225.06 375.82 225.12 364.63 226.82 353.89 229.23 342.98 233.51 332.38 239.5 322.13 246.35 311.59 254.75 301.26 264.4 291.22 274.63 280.85 285.82 270.76 297.64 261.11 309.73 251.29 322.24 242.08 334.94 233.76 347.72 225.68 360.61 218.8 373.43 213.47 379.86 211.08 386.26 209.13 392.62 207.68 398.99 206.45 405.3 205.75 411.54 205.6" stroke-dasharray="10 1" transform="rotate(40.400000000000006, 400, 400)" opacity="0.24"></path><path d="M405.73 216.18C417.27 216.6 427.86 219.01 437.4 223.17 446.85 228.01 455.17 234.34 462.28 241.84 469.3 249.63 475.16 258.32 479.94 267.64 484.86 276.91 489.05 286.65 492.75 296.7 497.24 306.52 501.87 316.63 506.98 326.94 513.6 337.03 521.17 347.41 529.7 358.02 539.73 368.5 550.36 379.34 560.98 390.48 571.71 401.59 581.1 413.08 588.17 424.9 593.28 436.72 594.74 448.29 592.63 459.48 588.2 470.62 580.72 481.27 570.91 491.22 560 500.98 547.84 509.86 535.16 517.62 522.71 525.01 510.4 531.1 498.54 535.72 487.46 539.87 476.85 542.51 466.67 543.6 457.13 544.41 447.71 543.93 438.27 542.3 429.12 540.98 419.66 539.04 409.8 536.75 400 535.54 389.67 534.51 378.86 533.81 368.04 534.66 357.28 535.83 346.75 537.16 336.3 539.55 326.21 541.57 316.72 542.94 307.45 544.59 298.94 545.07 291.4 544.24 284.19 543.11 278.04 540.42 273.1 536.21 268.41 531.52 264.82 525.35 262.33 517.9 259.75 510.06 257.94 501.12 256.78 491.32 254.98 481.32 253.43 470.64 252.07 459.47 249.66 448.26 247.29 436.67 245.07 424.86 242 413.04 239.6 401.56 238.06 390.48 236.48 379.35 236.27 368.55 237.53 358.11 239.38 347.53 242.92 337.2 248.04 327.16 253.91 316.89 261.26 306.82 269.83 297.04 278.97 287.03 289.08 277.32 299.87 268.07 310.97 258.75 322.54 250.06 334.34 242.25 346.26 234.71 358.31 228.33 370.27 223.42 382.29 219.19 394.17 216.7 405.72 216.18" stroke-dasharray="2 6" transform="rotate(44.44, 400, 400)" opacity="0.14"></path><path d="M399.44 226.77C410.06 227.14 419.78 229.33 428.51 233.13 437.19 237.56 444.86 243.38 451.49 250.31 458.11 257.55 463.8 265.67 468.65 274.44 473.75 283.22 478.34 292.49 482.66 302.09 487.77 311.54 493.1 321.29 498.88 331.23 505.96 341.01 513.8 351.04 522.36 361.25 532.07 371.36 542.12 381.74 551.96 392.34 561.78 402.9 570.31 413.74 576.74 424.76 581.48 435.79 583.02 446.48 581.43 456.7 577.83 466.86 571.47 476.47 562.93 485.34 553.3 494.03 542.34 501.85 530.69 508.59 519.03 515.03 507.27 520.27 495.74 524.18 484.75 527.74 474.09 529.97 463.81 530.86 454.04 531.61 444.45 531.24 434.97 529.91 425.75 528.92 416.4 527.38 406.86 525.52 397.4 524.62 387.61 523.82 377.55 523.22 367.48 523.96 357.63 524.89 348.13 525.9 338.68 527.86 329.69 529.47 321.33 530.52 313.14 531.89 305.71 532.26 299.2 531.51 290.27 529.46 277.69 518.1 273.89 508.96 271.47 502.16 269.7 494.29 268.48 485.55 266.61 476.64 264.97 467 263.49 456.81 261.07 446.57 258.7 435.87 256.51 424.84 253.54 413.81 251.19 402.98 249.64 392.44 247.99 381.86 247.57 371.51 248.45 361.43 249.8 351.25 252.66 341.26 256.95 331.52 261.9 321.61 268.22 311.9 275.7 302.48 283.72 292.9 292.71 283.65 302.39 274.88 312.4 266.11 322.93 257.98 333.71 250.71 344.66 243.74 355.75 237.87 366.78 233.37 377.87 229.5 388.83 227.23 399.44 226.77" stroke-dasharray="4 10" transform="rotate(48.48, 400, 400)" opacity="0.77"></path><path d="M393.2 237.36C402.92 237.68 411.82 239.66 419.87 243.11 427.89 247.13 435.06 252.43 441.37 258.79 447.74 265.45 453.39 272.97 458.42 281.13 463.76 289.35 468.78 298.08 473.68 307.15 479.3 316.15 485.19 325.45 491.47 334.93 498.82 344.3 506.75 353.9 515.16 363.63 524.43 373.29 533.82 383.16 542.86 393.15 551.79 403.12 559.49 413.26 565.3 423.48 569.68 433.7 571.27 443.5 570.12 452.77 567.27 462 561.94 470.61 554.61 478.47 546.24 486.19 536.52 493.05 525.99 498.89 515.29 504.5 504.28 509.02 493.32 512.35 482.68 515.44 472.22 517.37 462.07 518.16 452.3 518.9 442.72 518.69 433.31 517.66 424.14 516.98 414.96 515.83 405.76 514.36 396.63 513.74 387.36 513.14 378.01 512.63 368.65 513.26 359.65 513.99 351.09 514.72 342.57 516.28 334.57 517.5 327.23 518.24 316.76 519.42 300.1 517.02 294.12 512.92 290.46 509.55 287.62 504.99 285.56 499.34 283.24 493.45 281.46 486.55 280.14 478.79 278.2 470.89 276.45 462.24 274.87 453 272.44 443.71 270.09 433.89 267.94 423.67 265.09 413.45 262.83 403.31 261.29 393.35 259.61 383.38 259.02 373.53 259.58 363.9 260.49 354.19 262.74 344.62 266.28 335.28 270.36 325.82 275.7 316.55 282.12 307.58 289.03 298.52 296.87 289.8 305.42 281.58 314.29 273.41 323.69 265.87 333.4 259.17 343.28 252.78 353.34 247.42 363.38 243.34 373.49 239.82 383.49 237.77 393.2 237.36" stroke-dasharray="10 11" transform="rotate(52.52, 400, 400)" opacity="0.66"></path><path d="M387.5 247.95C396.34 248.23 404.52 250 411.98 253.1 419.43 256.71 426.21 261.5 432.32 267.27 438.53 273.33 444.21 280.22 449.46 287.73 455.04 295.35 460.45 303.47 465.82 311.94 471.83 320.39 478.09 329.14 484.68 338.08 492.11 346.96 499.95 356.03 508.06 365.21 516.79 374.34 525.47 383.62 533.69 392.96 541.74 402.29 548.65 411.71 553.86 421.11 557.89 430.51 559.49 439.44 558.72 447.8 556.52 456.12 552.14 463.81 545.94 470.75 538.78 477.58 530.31 483.58 520.96 488.65 511.33 493.55 501.25 497.47 491.04 500.34 480.99 503.07 470.99 504.8 461.19 505.55 451.65 506.32 442.28 506.3 433.1 505.57 424.11 505.19 415.2 504.38 406.39 503.27 397.64 502.89 388.89 502.47 380.21 502.05 371.52 502.58 363.3 503.12 355.59 503.6 347.91 504.79 340.79 505.67 334.33 506.11 325.09 506.91 310.49 504.56 305.2 500.94 300.56 496.07 294.09 481.03 291.73 471.15 289.71 464.18 287.87 456.46 286.2 448.13 283.78 439.75 281.47 430.81 279.38 421.41 276.67 412 274.5 402.58 272.99 393.27 271.33 383.94 270.61 374.67 270.91 365.56 271.45 356.4 273.17 347.34 276.03 338.49 279.32 329.57 283.75 320.83 289.17 312.39 295.01 303.93 301.73 295.81 309.15 288.18 316.86 280.66 325.12 273.74 333.72 267.64 342.49 261.83 351.48 256.99 360.52 253.32 369.61 250.15 378.66 248.3 387.5 247.95" stroke-dasharray="4 6" transform="rotate(56.56, 400, 400)" opacity="0.22"></path><path d="M382.79 258.53C390.8 258.77 398.29 260.34 405.24 263.1 412.2 266.31 418.65 270.59 424.62 275.77 430.7 281.23 436.43 287.47 441.89 294.3 447.65 301.25 453.34 308.71 459.04 316.52 465.28 324.35 471.74 332.48 478.42 340.79 485.75 349.08 493.33 357.55 501.02 366.09 509.12 374.62 517.05 383.25 524.45 391.89 531.64 400.53 537.78 409.18 542.42 417.76 546.09 426.34 547.67 434.41 547.22 441.9 545.6 449.36 542.07 456.19 536.91 462.3 530.91 468.33 523.65 473.59 515.51 478 507.01 482.3 497.98 485.73 488.69 488.25 479.43 490.7 470.09 492.3 460.86 493.07 451.78 493.91 442.81 494.08 434.03 493.64 425.39 493.53 416.86 493.04 408.51 492.25 400.21 492.07 392 491.8 383.97 491.46 375.94 491.91 368.43 492.28 361.48 492.54 351.36 493.7 334.27 494.56 327.44 493.68 321.29 492.12 312.18 484.6 308.97 478.56 306.69 474.12 304.8 468.83 303.23 462.78 301.14 456.64 299.22 449.79 297.48 442.31 295.09 434.81 292.84 426.73 290.82 418.15 288.26 409.57 286.21 400.91 284.76 392.28 283.14 383.65 282.35 375.03 282.44 366.51 282.69 357.97 283.96 349.52 286.23 341.24 288.81 332.94 292.41 324.82 296.92 316.99 301.75 309.18 307.42 301.72 313.75 294.75 320.33 287.89 327.46 281.63 334.97 276.13 342.62 270.91 350.54 266.57 358.58 263.31 366.66 260.48 374.78 258.84 382.79 258.53" stroke-dasharray="4 10" transform="rotate(60.599999999999994, 400, 400)" opacity="0.65"></path><path d="M379.43 269.12C386.65 269.32 393.52 270.69 400 273.13 406.49 275.94 412.66 279.72 418.49 284.31 424.43 289.16 430.17 294.73 435.74 300.86 441.58 307.13 447.42 313.87 453.28 320.96 459.58 328.1 466.03 335.54 472.62 343.15 479.67 350.77 486.85 358.56 493.99 366.41 501.4 374.26 508.54 382.18 515.12 390.07 521.48 397.97 526.89 405.85 530.99 413.6 534.3 421.34 535.83 428.58 535.64 435.25 534.51 441.9 531.73 447.94 527.52 453.31 522.59 458.63 516.5 463.24 509.54 467.1 502.22 470.9 494.31 473.94 486.06 476.2 477.74 478.44 469.24 479.96 460.75 480.78 452.33 481.7 443.96 482.06 435.75 481.89 427.61 482.02 419.6 481.8 411.79 481.29 404.02 481.29 396.39 481.15 389 480.87 381.6 481.24 374.76 481.47 368.49 481.55 359.36 482.29 344.06 482.41 337.94 481.36 332.33 479.8 323.76 473.02 320.55 467.68 317.27 461.49 311.47 445.42 308.69 435.73 306.36 429.05 304.18 421.8 302.25 414.05 299.86 406.29 297.95 398.41 296.58 390.52 295.03 382.63 294.21 374.71 294.15 366.87 294.17 359.03 295.08 351.25 296.84 343.63 298.83 336.02 301.71 328.58 305.39 321.44 309.33 314.34 314.01 307.58 319.33 301.3 324.85 295.14 330.9 289.55 337.36 284.65 343.94 280.02 350.82 276.19 357.89 273.32 364.99 270.83 372.21 269.39 379.43 269.12" stroke-dasharray="7 8" transform="rotate(64.64, 400, 400)" opacity="0.94"></path><path d="M377.7 279.71C384.17 279.87 390.44 281.06 396.46 283.17 402.5 285.6 408.35 288.89 414.01 292.91 419.76 297.15 425.42 302.05 430.99 307.46 436.77 313.01 442.59 319.01 448.43 325.35 454.59 331.74 460.85 338.43 467.16 345.28 473.79 352.16 480.43 359.2 486.94 366.3 493.59 373.4 499.93 380.56 505.7 387.67 511.26 394.79 515.97 401.87 519.56 408.79 522.51 415.71 523.97 422.15 523.98 428.05 523.25 433.93 521.13 439.25 517.77 443.96 513.82 448.64 508.82 452.7 503.01 456.1 496.85 459.47 490.09 462.2 482.93 464.26 475.66 466.34 468.13 467.82 460.53 468.71 452.94 469.72 445.33 470.25 437.82 470.32 430.35 470.65 422.98 470.67 415.8 470.39 408.64 470.54 401.65 470.5 394.9 470.28 385.04 470.64 368.02 471 360.87 470.74 348.81 469.07 335.2 461.43 331.97 456.69 328.63 451.25 322.65 437.13 319.85 428.58 317.59 422.67 315.51 416.23 313.69 409.3 311.48 402.37 309.72 395.29 308.44 388.17 307 381.06 306.19 373.9 306.03 366.8 305.9 359.7 306.52 352.66 307.87 345.78 309.37 338.92 311.63 332.23 314.6 325.82 317.75 319.48 321.57 313.46 325.97 307.88 330.52 302.44 335.59 297.51 341.07 293.23 346.63 289.17 352.54 285.83 358.69 283.35 364.87 281.18 371.23 279.93 377.7 279.71" stroke-dasharray="7 9" transform="rotate(68.68, 400, 400)" opacity="0.28"></path><path d="M377.73 290.3C389.24 290.85 400.46 294.88 411.17 301.57 422.21 309.05 433.32 318.74 444.34 329.75 456.23 341.04 468.34 353.37 479.82 365.93 491.53 378.57 501.53 391.36 508.12 403.58 512.77 415.79 512.4 426.19 507.68 434.46 501.05 442.67 491.06 448.74 479.15 452.55 466.67 456.51 453.2 458.59 439.82 458.94 426.49 460.19 413.38 460.42 401.2 459.7 389.01 460.57 378.74 460.46 370.46 459.32 362.01 459.06 355.29 457.03 350.32 453.11 344.69 449.32 340.23 443.25 336.88 435.04 332.21 426.75 328.16 416.34 325.13 404.11 320.83 391.89 318.42 379.09 318.06 366.45 317.64 353.87 319.86 341.53 324.51 330.21 329.6 319.16 337.01 309.42 346.15 301.87 355.5 295.09 366.23 290.96 377.73 290.3" stroke-dasharray="5 0" transform="rotate(72.72, 400, 400)" opacity="0.44"></path><path d="M379.53 300.88C389.64 301.31 399.84 304.68 409.84 310.32 420.09 316.6 430.52 324.83 440.84 334.26 451.7 343.96 462.55 354.6 472.6 365.5 482.66 376.48 491.12 387.6 496.68 398.2 500.79 408.8 500.8 417.82 497.25 425.02 492.24 432.19 484.31 437.6 474.58 441.14 464.28 444.87 452.88 447.05 441.33 447.76 429.75 449.19 418.22 449.65 407.41 449.11 396.58 449.78 387.38 449.43 379.87 448.09 372.17 447.47 365.89 445.35 361.05 441.66 355.62 438.15 351.18 432.75 347.72 425.58 343.23 418.37 339.39 409.35 336.56 398.74 332.73 388.13 330.6 377 330.22 366.01 329.69 355.1 331.35 344.43 335.07 334.69 339.02 325.23 344.99 316.94 352.59 310.59 360.3 304.87 369.41 301.41 379.53 300.88" stroke-dasharray="5 2" transform="rotate(76.76, 400, 400)" opacity="0.87"></path><path d="M382.93 311.47C391.67 311.79 400.75 314.53 409.8 319.17 419.03 324.3 428.46 331.1 437.73 338.95 447.31 347.03 456.71 355.98 465.24 365.18 473.66 374.46 480.66 383.89 485.24 392.91 488.78 401.92 489.06 409.62 486.49 415.83 482.87 422.05 476.8 426.84 469.1 430.12 460.92 433.6 451.62 435.81 441.97 436.77 432.26 438.29 422.42 438.91 413.03 438.52 403.63 439.01 395.49 438.5 388.71 437.06 381.76 436.17 375.94 434.02 371.26 430.59 366.12 427.33 361.79 422.56 358.35 416.36 354.14 410.15 350.58 402.45 348 393.43 344.66 384.4 342.82 374.96 342.49 365.66 341.94 356.44 343.21 347.47 346.18 339.35 349.23 331.46 354.01 324.61 360.25 319.4 366.54 314.69 374.19 311.87 382.93 311.47" stroke-dasharray="0 1" transform="rotate(80.80000000000001, 400, 400)" opacity="0.36"></path><path d="M387.69 322.06C395.06 322.28 402.86 324.43 410.74 328.12 418.71 332.17 426.88 337.59 434.83 343.9 442.92 350.41 450.74 357.65 457.71 365.16 464.52 372.74 470.13 380.48 473.81 387.94 476.99 398.61 470.73 414.46 462.66 419.55 456.44 422.72 449.17 424.88 441.44 425.99 433.62 427.5 425.53 428.19 417.62 427.93 409.7 428.28 402.68 427.67 396.67 426.23 387.89 424.13 374.06 414.91 368.74 407.56 364.91 402.31 361.71 395.88 359.44 388.42 356.62 380.95 355.09 373.2 354.83 365.6 354.36 358.07 355.36 350.8 357.74 344.26 360.1 337.91 363.9 332.44 368.96 328.33 374.02 324.58 380.32 322.35 387.69 322.06" stroke-dasharray="7 6" transform="rotate(84.84, 400, 400)" opacity="0.69"></path><path d="M393.42 332.65C405.38 333.25 419.12 339.66 431.92 349.2 444.87 359.27 456.35 371.68 462.37 383.53 466.62 395.38 463.41 404.31 455.24 409.5 446.07 415.16 433.57 418.03 420.81 417.35 408.05 418.17 397.37 415.41 389.67 409.83 381.1 404.7 374.32 395.8 370.88 383.94 366 372.08 365.73 359.63 369.58 349.49 373.24 339.88 381.46 333.37 393.42 332.65" stroke-dasharray="11 3" transform="rotate(88.88, 400, 400)" opacity="0.49"></path><path d="M399.67 343.23C408.77 343.57 419.23 348.07 428.82 354.9 438.37 362.05 446.66 371.05 450.93 379.89 454.23 388.72 452.34 395.67 446.85 399.99 440.79 404.61 431.96 407.13 422.37 406.76 412.76 407.23 404.2 404.8 397.69 400.24 390.71 395.98 385.13 389.05 382.31 380.21 378.66 371.37 378.57 362.34 381.57 355.13 384.36 348.25 390.56 343.66 399.67 343.23" stroke-dasharray="4 6" transform="rotate(92.92, 400, 400)" opacity="0.21"></path><path d="M405.94 353.82C418.27 354.44 433.76 365.43 439.5 377.17 443.54 388.91 434.94 396.83 422.15 396.17 409.35 396.97 397.39 389.14 393.75 377.4 388.58 365.65 393.61 354.57 405.94 353.82" stroke-dasharray="3 8" transform="rotate(96.96, 400, 400)" opacity="0.64"></path></g></svg>