<svg xmlns="http://www.w3.org/2000/svg" version="1.1" xmlns:xlink="http://www.w3.org/1999/xlink" xmlns:svgjs="http://svgjs.dev/svgjs" viewBox="0 0 800 800" opacity="0.78"><defs><linearGradient gradientTransform="rotate(270)" x1="50%" y1="0%" x2="50%" y2="100%" id="sssquiggly-grad"><stop stop-color="hsl(206, 75%, 49%)" stop-opacity="1" offset="0%"></stop><stop stop-color="hsl(331, 90%, 56%)" stop-opacity="1" offset="100%"></stop></linearGradient></defs><g stroke-width="2" stroke="url(#sssquiggly-grad)" fill="none" stroke-linecap="round" transform="matrix(1,0,0,1,-5,211.97113037109375)"><path d="M10,10C24.583333333333332,14.375,48.75,38.5,80,31C111.25,23.5,126.66666666666666,-30.375,160,-26C193.33333333333334,-21.625,206.66666666666666,49.083333333333336,240,52C273.3333333333333,54.916666666666664,286.6666666666667,-11.791666666666666,320,-12C353.3333333333333,-12.208333333333334,366.6666666666667,49.333333333333336,400,51C433.3333333333333,52.666666666666664,446.6666666666667,-2.3333333333333335,480,-4C513.3333333333334,-5.666666666666666,526.6666666666666,45.291666666666664,560,43C593.3333333333334,40.708333333333336,606.6666666666666,-20,640,-15C673.3333333333334,-10,686.6666666666666,69.5,720,67C753.3333333333334,64.5,783.3333333333334,-7.416666666666668,800,-27"></path><path d="M10,10C24.583333333333332,14.375,48.75,38.5,80,31C111.25,23.5,126.66666666666666,-30.375,160,-26C193.33333333333334,-21.625,206.66666666666666,49.083333333333336,240,52C273.3333333333333,54.916666666666664,286.6666666666667,-11.791666666666666,320,-12C353.3333333333333,-12.208333333333334,366.6666666666667,49.333333333333336,400,51C433.3333333333333,52.666666666666664,446.6666666666667,-2.3333333333333335,480,-4C513.3333333333334,-5.666666666666666,526.6666666666666,45.291666666666664,560,43C593.3333333333334,40.708333333333336,606.6666666666666,-20,640,-15C673.3333333333334,-10,686.6666666666666,69.5,720,67C753.3333333333334,64.5,783.3333333333334,-7.416666666666668,800,-27" transform="matrix(1,0,0,1,0,336)"></path><path d="M10,10C24.583333333333332,14.375,48.75,38.5,80,31C111.25,23.5,126.66666666666666,-30.375,160,-26C193.33333333333334,-21.625,206.66666666666666,49.083333333333336,240,52C273.3333333333333,54.916666666666664,286.6666666666667,-11.791666666666666,320,-12C353.3333333333333,-12.208333333333334,366.6666666666667,49.333333333333336,400,51C433.3333333333333,52.666666666666664,446.6666666666667,-2.3333333333333335,480,-4C513.3333333333334,-5.666666666666666,526.6666666666666,45.291666666666664,560,43C593.3333333333334,40.708333333333336,606.6666666666666,-20,640,-15C673.3333333333334,-10,686.6666666666666,69.5,720,67C753.3333333333334,64.5,783.3333333333334,-7.416666666666668,800,-27" transform="matrix(1,0,0,1,0,308)"></path><path d="M10,10C24.583333333333332,14.375,48.75,38.5,80,31C111.25,23.5,126.66666666666666,-30.375,160,-26C193.33333333333334,-21.625,206.66666666666666,49.083333333333336,240,52C273.3333333333333,54.916666666666664,286.6666666666667,-11.791666666666666,320,-12C353.3333333333333,-12.208333333333334,366.6666666666667,49.333333333333336,400,51C433.3333333333333,52.666666666666664,446.6666666666667,-2.3333333333333335,480,-4C513.3333333333334,-5.666666666666666,526.6666666666666,45.291666666666664,560,43C593.3333333333334,40.708333333333336,606.6666666666666,-20,640,-15C673.3333333333334,-10,686.6666666666666,69.5,720,67C753.3333333333334,64.5,783.3333333333334,-7.416666666666668,800,-27" transform="matrix(1,0,0,1,0,280)"></path><path d="M10,10C24.583333333333332,14.375,48.75,38.5,80,31C111.25,23.5,126.66666666666666,-30.375,160,-26C193.33333333333334,-21.625,206.66666666666666,49.083333333333336,240,52C273.3333333333333,54.916666666666664,286.6666666666667,-11.791666666666666,320,-12C353.3333333333333,-12.208333333333334,366.6666666666667,49.333333333333336,400,51C433.3333333333333,52.666666666666664,446.6666666666667,-2.3333333333333335,480,-4C513.3333333333334,-5.666666666666666,526.6666666666666,45.291666666666664,560,43C593.3333333333334,40.708333333333336,606.6666666666666,-20,640,-15C673.3333333333334,-10,686.6666666666666,69.5,720,67C753.3333333333334,64.5,783.3333333333334,-7.416666666666668,800,-27" transform="matrix(1,0,0,1,0,252)"></path><path d="M10,10C24.583333333333332,14.375,48.75,38.5,80,31C111.25,23.5,126.66666666666666,-30.375,160,-26C193.33333333333334,-21.625,206.66666666666666,49.083333333333336,240,52C273.3333333333333,54.916666666666664,286.6666666666667,-11.791666666666666,320,-12C353.3333333333333,-12.208333333333334,366.6666666666667,49.333333333333336,400,51C433.3333333333333,52.666666666666664,446.6666666666667,-2.3333333333333335,480,-4C513.3333333333334,-5.666666666666666,526.6666666666666,45.291666666666664,560,43C593.3333333333334,40.708333333333336,606.6666666666666,-20,640,-15C673.3333333333334,-10,686.6666666666666,69.5,720,67C753.3333333333334,64.5,783.3333333333334,-7.416666666666668,800,-27" transform="matrix(1,0,0,1,0,224)"></path><path d="M10,10C24.583333333333332,14.375,48.75,38.5,80,31C111.25,23.5,126.66666666666666,-30.375,160,-26C193.33333333333334,-21.625,206.66666666666666,49.083333333333336,240,52C273.3333333333333,54.916666666666664,286.6666666666667,-11.791666666666666,320,-12C353.3333333333333,-12.208333333333334,366.6666666666667,49.333333333333336,400,51C433.3333333333333,52.666666666666664,446.6666666666667,-2.3333333333333335,480,-4C513.3333333333334,-5.666666666666666,526.6666666666666,45.291666666666664,560,43C593.3333333333334,40.708333333333336,606.6666666666666,-20,640,-15C673.3333333333334,-10,686.6666666666666,69.5,720,67C753.3333333333334,64.5,783.3333333333334,-7.416666666666668,800,-27" transform="matrix(1,0,0,1,0,196)"></path><path d="M10,10C24.583333333333332,14.375,48.75,38.5,80,31C111.25,23.5,126.66666666666666,-30.375,160,-26C193.33333333333334,-21.625,206.66666666666666,49.083333333333336,240,52C273.3333333333333,54.916666666666664,286.6666666666667,-11.791666666666666,320,-12C353.3333333333333,-12.208333333333334,366.6666666666667,49.333333333333336,400,51C433.3333333333333,52.666666666666664,446.6666666666667,-2.3333333333333335,480,-4C513.3333333333334,-5.666666666666666,526.6666666666666,45.291666666666664,560,43C593.3333333333334,40.708333333333336,606.6666666666666,-20,640,-15C673.3333333333334,-10,686.6666666666666,69.5,720,67C753.3333333333334,64.5,783.3333333333334,-7.416666666666668,800,-27" transform="matrix(1,0,0,1,0,168)"></path><path d="M10,10C24.583333333333332,14.375,48.75,38.5,80,31C111.25,23.5,126.66666666666666,-30.375,160,-26C193.33333333333334,-21.625,206.66666666666666,49.083333333333336,240,52C273.3333333333333,54.916666666666664,286.6666666666667,-11.791666666666666,320,-12C353.3333333333333,-12.208333333333334,366.6666666666667,49.333333333333336,400,51C433.3333333333333,52.666666666666664,446.6666666666667,-2.3333333333333335,480,-4C513.3333333333334,-5.666666666666666,526.6666666666666,45.291666666666664,560,43C593.3333333333334,40.708333333333336,606.6666666666666,-20,640,-15C673.3333333333334,-10,686.6666666666666,69.5,720,67C753.3333333333334,64.5,783.3333333333334,-7.416666666666668,800,-27" transform="matrix(1,0,0,1,0,140)"></path><path d="M10,10C24.583333333333332,14.375,48.75,38.5,80,31C111.25,23.5,126.66666666666666,-30.375,160,-26C193.33333333333334,-21.625,206.66666666666666,49.083333333333336,240,52C273.3333333333333,54.916666666666664,286.6666666666667,-11.791666666666666,320,-12C353.3333333333333,-12.208333333333334,366.6666666666667,49.333333333333336,400,51C433.3333333333333,52.666666666666664,446.6666666666667,-2.3333333333333335,480,-4C513.3333333333334,-5.666666666666666,526.6666666666666,45.291666666666664,560,43C593.3333333333334,40.708333333333336,606.6666666666666,-20,640,-15C673.3333333333334,-10,686.6666666666666,69.5,720,67C753.3333333333334,64.5,783.3333333333334,-7.416666666666668,800,-27" transform="matrix(1,0,0,1,0,112)"></path><path d="M10,10C24.583333333333332,14.375,48.75,38.5,80,31C111.25,23.5,126.66666666666666,-30.375,160,-26C193.33333333333334,-21.625,206.66666666666666,49.083333333333336,240,52C273.3333333333333,54.916666666666664,286.6666666666667,-11.791666666666666,320,-12C353.3333333333333,-12.208333333333334,366.6666666666667,49.333333333333336,400,51C433.3333333333333,52.666666666666664,446.6666666666667,-2.3333333333333335,480,-4C513.3333333333334,-5.666666666666666,526.6666666666666,45.291666666666664,560,43C593.3333333333334,40.708333333333336,606.6666666666666,-20,640,-15C673.3333333333334,-10,686.6666666666666,69.5,720,67C753.3333333333334,64.5,783.3333333333334,-7.416666666666668,800,-27" transform="matrix(1,0,0,1,0,84)"></path><path d="M10,10C24.583333333333332,14.375,48.75,38.5,80,31C111.25,23.5,126.66666666666666,-30.375,160,-26C193.33333333333334,-21.625,206.66666666666666,49.083333333333336,240,52C273.3333333333333,54.916666666666664,286.6666666666667,-11.791666666666666,320,-12C353.3333333333333,-12.208333333333334,366.6666666666667,49.333333333333336,400,51C433.3333333333333,52.666666666666664,446.6666666666667,-2.3333333333333335,480,-4C513.3333333333334,-5.666666666666666,526.6666666666666,45.291666666666664,560,43C593.3333333333334,40.708333333333336,606.6666666666666,-20,640,-15C673.3333333333334,-10,686.6666666666666,69.5,720,67C753.3333333333334,64.5,783.3333333333334,-7.416666666666668,800,-27" transform="matrix(1,0,0,1,0,56)"></path><path d="M10,10C24.583333333333332,14.375,48.75,38.5,80,31C111.25,23.5,126.66666666666666,-30.375,160,-26C193.33333333333334,-21.625,206.66666666666666,49.083333333333336,240,52C273.3333333333333,54.916666666666664,286.6666666666667,-11.791666666666666,320,-12C353.3333333333333,-12.208333333333334,366.6666666666667,49.333333333333336,400,51C433.3333333333333,52.666666666666664,446.6666666666667,-2.3333333333333335,480,-4C513.3333333333334,-5.666666666666666,526.6666666666666,45.291666666666664,560,43C593.3333333333334,40.708333333333336,606.6666666666666,-20,640,-15C673.3333333333334,-10,686.6666666666666,69.5,720,67C753.3333333333334,64.5,783.3333333333334,-7.416666666666668,800,-27" transform="matrix(1,0,0,1,0,28)"></path></g></svg>