<svg xmlns="http://www.w3.org/2000/svg" version="1.1" xmlns:xlink="http://www.w3.org/1999/xlink" xmlns:svgjs="http://svgjs.dev/svgjs" viewBox="0 0 2400 800" opacity="0.82"><defs><linearGradient x1="50%" y1="0%" x2="50%" y2="100%" id="sssurf-grad"><stop stop-color="hsl(230, 55%, 50%)" stop-opacity="1" offset="0%"></stop><stop stop-color="hsl(230, 55%, 70%)" stop-opacity="1" offset="100%"></stop></linearGradient></defs><g fill="url(#sssurf-grad)" transform="matrix(1,0,0,1,0,-211.99990844726562)"><path d="M 0 337.9272721041705 Q 600 450 600 342.1734500326161 Q 1200 450 1200 328.9998264901324 Q 1800 450 1800 362.8667733582278 Q 2400 450 2400 331.0949395842699 L 2400 800 L 0 800 L 0 355.18213004922745 Z" transform="matrix(1,0,0,1,0,45)" opacity="0.05"></path><path d="M 0 337.9272721041705 Q 600 450 600 342.1734500326161 Q 1200 450 1200 328.9998264901324 Q 1800 450 1800 362.8667733582278 Q 2400 450 2400 331.0949395842699 L 2400 800 L 0 800 L 0 355.18213004922745 Z" transform="matrix(1,0,0,1,0,90)" opacity="0.16"></path><path d="M 0 337.9272721041705 Q 600 450 600 342.1734500326161 Q 1200 450 1200 328.9998264901324 Q 1800 450 1800 362.8667733582278 Q 2400 450 2400 331.0949395842699 L 2400 800 L 0 800 L 0 355.18213004922745 Z" transform="matrix(1,0,0,1,0,135)" opacity="0.26"></path><path d="M 0 337.9272721041705 Q 600 450 600 342.1734500326161 Q 1200 450 1200 328.9998264901324 Q 1800 450 1800 362.8667733582278 Q 2400 450 2400 331.0949395842699 L 2400 800 L 0 800 L 0 355.18213004922745 Z" transform="matrix(1,0,0,1,0,180)" opacity="0.37"></path><path d="M 0 337.9272721041705 Q 600 450 600 342.1734500326161 Q 1200 450 1200 328.9998264901324 Q 1800 450 1800 362.8667733582278 Q 2400 450 2400 331.0949395842699 L 2400 800 L 0 800 L 0 355.18213004922745 Z" transform="matrix(1,0,0,1,0,225)" opacity="0.47"></path><path d="M 0 337.9272721041705 Q 600 450 600 342.1734500326161 Q 1200 450 1200 328.9998264901324 Q 1800 450 1800 362.8667733582278 Q 2400 450 2400 331.0949395842699 L 2400 800 L 0 800 L 0 355.18213004922745 Z" transform="matrix(1,0,0,1,0,270)" opacity="0.58"></path><path d="M 0 337.9272721041705 Q 600 450 600 342.1734500326161 Q 1200 450 1200 328.9998264901324 Q 1800 450 1800 362.8667733582278 Q 2400 450 2400 331.0949395842699 L 2400 800 L 0 800 L 0 355.18213004922745 Z" transform="matrix(1,0,0,1,0,315)" opacity="0.68"></path><path d="M 0 337.9272721041705 Q 600 450 600 342.1734500326161 Q 1200 450 1200 328.9998264901324 Q 1800 450 1800 362.8667733582278 Q 2400 450 2400 331.0949395842699 L 2400 800 L 0 800 L 0 355.18213004922745 Z" transform="matrix(1,0,0,1,0,360)" opacity="0.79"></path><path d="M 0 337.9272721041705 Q 600 450 600 342.1734500326161 Q 1200 450 1200 328.9998264901324 Q 1800 450 1800 362.8667733582278 Q 2400 450 2400 331.0949395842699 L 2400 800 L 0 800 L 0 355.18213004922745 Z" transform="matrix(1,0,0,1,0,405)" opacity="0.89"></path><path d="M 0 337.9272721041705 Q 600 450 600 342.1734500326161 Q 1200 450 1200 328.9998264901324 Q 1800 450 1800 362.8667733582278 Q 2400 450 2400 331.0949395842699 L 2400 800 L 0 800 L 0 355.18213004922745 Z" transform="matrix(1,0,0,1,0,450)" opacity="1.00"></path></g></svg>